<svg width="138" height="144" viewBox="0 0 138 144" fill="none" xmlns="http://www.w3.org/2000/svg">
<path d="M21.3676 115.703C21.3709 115.663 21.3743 115.621 21.3777 115.577C21.4006 115.28 21.4235 114.891 21.4463 114.417C21.4463 114.417 21.4463 114.417 21.4463 114.417C21.4568 114.198 21.4673 113.962 21.4778 113.708C21.4921 113.36 21.5062 112.981 21.5203 112.571M21.3676 115.703L27.5392 59.75C26.0682 56.862 24.3472 54.5 23.7152 54.5C22.8782 54.5 22.5262 62.824 22.4162 85.174C22.344 100.041 22.1109 112.699 21.8711 115.68C21.8159 115.382 21.778 114.948 21.7772 114.416L21.7772 114.416C21.7765 114.092 21.681 113.445 21.5203 112.571M21.3676 115.703C21.3114 115.368 21.278 114.926 21.2772 114.417L21.3676 115.703ZM21.5203 112.571C21.4871 112.391 21.4512 112.201 21.4128 112.003C21.1835 110.818 20.8529 109.267 20.4462 107.46C19.6326 103.844 18.5116 99.1924 17.2797 94.3761L16.7952 94.5L17.2796 94.376L12.8172 76.9368L12.7993 56.8936L12.7812 36.7866L12.781 36.4654L12.4888 36.3321L6.7389 33.7082L6.73883 33.7081L3.07279 32.0345L9.28196 32.025H9.28201L17.4913 32.0134L19.2001 35.004C19.2001 35.004 19.2001 35.004 19.2001 35.0041C20.2173 36.7848 22.4128 40.7172 24.0783 43.7412L24.0783 43.7413C24.9133 45.2565 25.7551 46.7471 26.4392 47.9287C27.1148 49.0955 27.6547 49.9928 27.8769 50.2955C28.2565 50.8135 29.6863 53.2553 31.0563 55.7413L31.0564 55.7414C33.4907 60.1567 36.7463 65.9095 39.4193 70.5582C40.7558 72.8826 41.9475 74.9325 42.8187 76.4021C43.254 77.1364 43.6108 77.7285 43.8662 78.1381C43.9934 78.3421 44.0984 78.5058 44.1768 78.6206C44.2151 78.6766 44.2527 78.7295 44.2865 78.7717C44.3021 78.7912 44.3267 78.8208 44.3566 78.8496C44.3708 78.8633 44.3985 78.8889 44.4367 78.9142L44.4375 78.9147C44.4605 78.93 44.5659 79 44.7193 79C44.8234 79 44.9019 78.9682 44.9394 78.9506C44.9814 78.9309 45.0135 78.9092 45.0334 78.8947C45.0728 78.8658 45.1041 78.8354 45.1239 78.8153C45.1655 78.7728 45.2081 78.7217 45.2479 78.6712C45.3299 78.5672 45.4354 78.421 45.5603 78.2405C45.8117 77.8773 46.1609 77.3473 46.5943 76.6731C47.4619 75.3234 48.6768 73.3804 50.1412 71.0029C53.0706 66.2471 57.0034 59.7448 61.1639 52.7558C65.739 45.0706 69.2019 40.0548 72.662 36.5484C76.1061 33.0583 79.5604 31.051 84.1472 29.4149L83.9792 28.944L84.1473 29.4149C86.1223 28.7103 89.3918 28.2303 92.1876 28.0857C93.5822 28.0136 94.8309 28.0265 95.7195 28.1296C96.1452 28.179 96.459 28.2461 96.66 28.3203C96.5255 28.4507 96.3195 28.6132 96.0469 28.797C95.4871 29.1744 94.7016 29.6045 93.8293 29.9896C92.2059 30.7063 90.2853 32.1005 88.2079 33.9758C86.1236 35.8573 83.8552 38.2474 81.5361 40.9848C76.8981 46.4596 72.0385 53.3464 68.0249 60.3843C66.0183 63.9029 64.2316 67.0479 62.6346 69.8592C60.064 74.3842 57.9847 78.0444 56.2703 81.0054C53.4871 85.8124 51.6832 88.7452 50.3159 90.5292C48.9517 92.3092 48.0853 92.8594 47.1997 93.0369C46.734 93.1302 46.2307 93.1274 45.5851 93.0942C45.4392 93.0866 45.2862 93.0776 45.126 93.0681C44.5906 93.0365 43.9742 93 43.2682 93C41.5838 93 40.3405 92.9724 39.4575 92.8509C38.538 92.7244 38.1857 92.5155 38.0583 92.3198C37.9416 92.1403 37.8986 91.783 38.201 90.9753C38.492 90.1978 39.0388 89.165 39.8201 87.7751C39.8201 87.775 39.8201 87.775 39.8201 87.775L41.9241 84.0331L42.0702 83.7732L41.9111 83.5211L39.1751 79.1861L39.175 79.1861C35.4132 73.228 31.1588 65.7513 27.9848 59.5231C27.2399 58.0606 26.4285 56.7246 25.7168 55.7476C25.3621 55.2607 25.0231 54.8504 24.7217 54.5563C24.5715 54.4098 24.4192 54.2808 24.269 54.1852C24.13 54.0968 23.9361 54 23.7152 54C23.4315 54 23.2505 54.1805 23.1604 54.3038C23.0669 54.4316 23.0005 54.5887 22.949 54.744C22.844 55.0607 22.7564 55.5105 22.6791 56.083C22.5235 57.2366 22.3969 58.9947 22.2936 61.4346C22.0868 66.3197 21.9713 73.9967 21.9163 85.1715C21.8753 93.6047 21.7825 101.326 21.6662 106.971C21.6206 109.186 21.5714 111.08 21.5203 112.571ZM53.3791 104.971L53.3792 104.971C53.5349 105.592 53.7681 106.144 54.0072 106.529C54.1275 106.723 54.2388 106.857 54.3282 106.937C54.3741 106.978 54.4027 106.994 54.4147 107C54.842 107.009 55.1915 107.245 55.419 107.548C55.6513 107.857 55.7812 108.261 55.7812 108.686C55.7812 108.674 55.7806 108.669 55.7816 108.672C55.7836 108.678 55.7928 108.718 55.8294 108.805C55.8762 108.915 55.9501 109.062 56.0528 109.244C56.2575 109.607 56.557 110.075 56.9282 110.617C57.6691 111.7 58.6755 113.049 59.7283 114.386C60.781 115.723 61.8746 117.039 62.7889 118.058C63.2466 118.568 63.6547 118.998 63.9875 119.317C64.1541 119.476 64.2971 119.603 64.4147 119.697C64.5385 119.796 64.6105 119.839 64.6383 119.851C64.6383 119.851 64.6384 119.851 64.6384 119.851L64.4352 120.308L53.3791 104.971ZM53.3791 104.971C53.1219 103.948 52.7283 102.577 52.3943 101.528C52.8565 101.951 53.4578 102.572 54.1544 103.366C56.1286 105.616 58.721 107.731 60.9846 109.13C62.1145 109.828 63.1847 110.362 64.0707 110.64C64.5124 110.778 64.9339 110.861 65.3075 110.856C65.6789 110.85 66.0636 110.756 66.3465 110.472L66.3466 110.472C66.4209 110.397 66.4638 110.314 66.4872 110.263C66.5137 110.205 66.5347 110.144 66.5519 110.087C66.5863 109.971 66.6162 109.831 66.6434 109.675C66.698 109.361 66.7489 108.938 66.7965 108.424C66.8919 107.395 66.9774 105.966 67.0491 104.245C67.1924 100.8 67.2812 96.163 67.2812 91.163V73.1391L71.9594 65.3812C73.2684 63.2103 74.4598 61.1363 75.3252 59.5424C75.7575 58.7462 76.1109 58.0652 76.3574 57.5497C76.4804 57.2926 76.5799 57.0702 76.6498 56.8919C76.6846 56.803 76.7148 56.7184 76.7369 56.6419C76.756 56.576 76.7812 56.4765 76.7812 56.373C76.7812 56.321 76.7919 56.2715 76.8111 56.2267C76.8194 56.2935 76.8278 56.3667 76.8363 56.4464C76.8979 57.0191 76.9614 57.8723 77.0255 58.9811C77.1537 61.1961 77.283 64.4038 77.406 68.3672C77.6519 76.2928 77.8718 87.2268 78.0063 99.2556C78.1408 111.286 78.2052 122.323 78.2009 130.415C78.1987 134.461 78.1793 137.768 78.1429 140.094C78.1256 141.198 78.1045 142.077 78.0798 142.709L53.3791 104.971ZM52.0758 100.622C51.6546 100.335 51.4781 100.385 51.6393 100.843C51.6508 100.876 51.6626 100.909 51.6745 100.944L52.0758 100.622ZM52.0758 100.622C52.0723 100.642 52.0658 100.668 52.0536 100.697L52.0758 100.622ZM40.1902 49.2928C40.1278 48.2276 40.0797 46.7716 40.0416 44.9073C39.9654 41.1753 39.93 35.8279 39.9002 28.7479C39.8512 17.0895 39.8817 10.0401 40.0648 5.90587C40.1566 3.83255 40.2859 2.52369 40.4541 1.74121C40.5393 1.34516 40.6254 1.13005 40.6919 1.02458C40.6962 1.01773 40.7002 1.0118 40.7037 1.00667C40.7548 1.01962 40.8241 1.05557 40.9136 1.14807C41.0449 1.28384 41.1923 1.51617 41.3394 1.87459C41.633 2.58998 41.8774 3.68738 42.0434 5.159C42.0691 5.38689 42.0934 5.60985 42.1171 5.82759C42.1975 6.56525 42.2714 7.24304 42.3703 7.84994C42.4991 8.63973 42.6762 9.35383 42.99 9.98085C43.6423 11.2846 44.8189 12.0855 46.9432 12.6005C49.0463 13.1104 52.1717 13.3637 56.8523 13.5133C61.0025 13.6459 66.4109 13.6975 73.468 13.7647C74.3872 13.7734 75.3344 13.7825 76.3104 13.792L105.781 14.0792V21.042C105.781 23.899 105.698 25.7189 105.493 26.8183C105.39 27.3721 105.265 27.6831 105.149 27.8469C105.056 27.9771 104.984 28 104.889 28C104.747 28 104.454 27.8648 104.107 27.4196C103.782 27.0028 103.489 26.4095 103.322 25.7461C102.994 24.4367 102.558 23.3364 101.896 22.4342C101.228 21.5242 100.348 20.8425 99.1754 20.3407C96.8688 19.3538 93.3875 19.0515 88.033 19.033L78.2829 19L77.7812 18.9983V19.5V24C77.7812 25.2157 77.6864 26.308 77.5387 27.0847C77.464 27.4771 77.3805 27.7638 77.3014 27.9406C77.2875 27.9715 77.2748 27.9967 77.2636 28.0169C77.1564 28.0379 77.0546 28.0749 76.9738 28.1073C76.8339 28.1633 76.6724 28.2413 76.4968 28.3344C76.1443 28.5214 75.7022 28.7867 75.2035 29.1076C74.2042 29.7506 72.9509 30.6336 71.6818 31.6026C70.4268 32.5609 69.2253 33.4303 68.3021 34.0585C67.8397 34.3731 67.4523 34.6236 67.1654 34.7938C67.1507 34.8024 67.1364 34.8109 67.1224 34.8191C67.1207 34.8087 67.1189 34.7982 67.1172 34.7875C67.054 34.4042 66.9949 33.8349 66.9445 33.1151C66.8441 31.6799 66.7812 29.6921 66.7812 27.5V19.5V18.9991L66.2803 19L58.0303 19.015C54.7233 19.0207 52.1816 19.0303 50.2207 19.3376C48.2402 19.6479 46.7782 20.272 45.6825 21.558C44.6077 22.8195 43.9387 24.6588 43.3856 27.2669C42.8307 29.8828 42.3776 33.3546 41.7854 37.9359C41.147 42.8734 40.6566 46.5226 40.2781 48.782C40.2479 48.9618 40.2186 49.1321 40.1902 49.2928ZM21.8489 115.929C21.824 116.175 21.799 116.315 21.7743 116.34C21.6411 116.474 21.5192 116.332 21.4295 115.997C21.4294 115.996 21.4292 115.995 21.4291 115.995C21.4279 115.99 21.4268 115.986 21.4256 115.982C21.4532 115.956 21.5392 115.889 21.679 115.89C21.7486 115.891 21.8053 115.908 21.8489 115.929ZM93.7621 115.859L93.7619 115.86C92.6593 116.742 91.5146 117.541 90.5627 118.118C90.0862 118.406 89.6655 118.635 89.3274 118.789C89.0508 118.915 88.8714 118.971 88.7754 118.991C88.7169 118.902 88.638 118.72 88.557 118.386C88.3968 117.726 88.2657 116.642 88.1639 114.981C87.9611 111.668 87.8808 106.183 87.8623 97.4989C87.8468 90.2404 87.9228 84.7498 88.0875 81.077C88.17 79.2382 88.2741 77.868 88.3979 76.9633C88.4172 76.8223 88.4367 76.6949 88.4562 76.5805C88.4901 76.7193 88.5225 76.8788 88.5523 77.0594C88.6987 77.9458 88.7649 79.2229 88.7165 80.734C88.5721 85.2389 88.8792 91.0476 89.4083 96.0262C89.673 98.5163 89.994 100.807 90.3441 102.63C90.5191 103.541 90.7025 104.341 90.8916 104.994C91.0776 105.636 91.2796 106.174 91.5046 106.533C91.813 107.025 92.0935 107.431 92.3748 107.739C92.6588 108.05 92.9694 108.289 93.345 108.403C93.7244 108.519 94.108 108.489 94.5021 108.377C94.8885 108.267 95.3149 108.069 95.7972 107.817C96.3728 107.515 97.8117 106.503 99.6625 105.139C101.532 103.761 103.864 101.992 106.253 100.147C111.024 96.4602 116.045 92.4479 118.057 90.6256L118.057 90.6255C119.1 89.6806 121.451 87.8935 123.276 86.6636L122.996 86.249L123.276 86.6636C125.061 85.4598 126.135 84.0923 126.364 82.5778C126.595 81.0551 125.951 79.5331 124.639 78.0754C122.032 75.1797 116.565 72.2813 108.638 69.6524C101.078 67.1447 96.0028 64.8366 92.6747 62.2075C89.3764 59.6019 87.7853 56.6745 87.2137 52.8619L86.7193 52.936L87.2137 52.8618C86.5751 48.6042 86.9223 45.1528 88.2693 42.3285C89.6141 39.5088 91.9838 37.2546 95.5042 35.4415L95.5043 35.4415C99.3626 33.4532 102.768 32.3756 106.339 32.1429C109.914 31.9101 113.69 32.5215 118.293 33.9641C122.255 35.206 124.712 35.8609 126.351 35.8629C127.194 35.8639 127.867 35.6942 128.428 35.3117C128.981 34.9351 129.374 34.3871 129.722 33.7359C130.009 33.2008 130.26 32.7915 130.479 32.5039C130.671 32.2506 130.805 32.1373 130.877 32.0935C130.955 32.1906 131.064 32.4151 131.172 32.8476C131.388 33.7114 131.543 35.1483 131.641 37.2549C131.74 39.3512 131.781 42.0773 131.781 45.5C131.781 49.3433 131.687 52.8329 131.537 55.3577C131.461 56.6221 131.372 57.6346 131.275 58.3257C131.267 58.3782 131.26 58.4283 131.253 58.4762C131.125 58.2309 130.982 57.9224 130.83 57.5575C130.388 56.5019 129.886 55.0335 129.435 53.41C127.648 46.9797 123.298 41.0309 118.47 38.5348C116.418 37.4735 113.381 36.8268 110.418 36.632C107.462 36.4375 104.476 36.686 102.535 37.4967C100.797 38.223 98.8777 39.757 97.3998 41.3728C96.6572 42.1846 96.0118 43.0325 95.5488 43.8312C95.0942 44.6153 94.7812 45.4099 94.7812 46.1C94.7812 47.0505 95.2362 48.0721 95.9542 49.0774C96.6792 50.0925 97.71 51.1437 98.9506 52.1644C101.432 54.2063 104.804 56.1679 108.397 57.5037C118.546 61.2767 124.58 63.7204 128.446 65.9245C132.275 68.1075 133.945 70.0371 135.373 72.7985C136.139 74.2803 136.781 77.0187 136.781 78.832C136.781 80.1862 136.612 81.0718 136.122 81.8906C135.619 82.7307 134.751 83.5508 133.229 84.7023C128.132 88.5606 128.076 88.6048 122.996 92.7091L123.31 93.098L122.996 92.7091C120.54 94.6939 113.872 99.9831 108.18 104.463C102.487 108.942 95.9997 114.071 93.7621 115.859ZM131.63 59.0557C131.63 59.0564 131.627 59.0539 131.619 59.0469C131.626 59.0517 131.63 59.055 131.63 59.0557ZM52.1107 100.676C52.1055 100.662 52.1012 100.649 52.0977 100.637C52.6125 100.995 53.4766 101.835 54.5303 103.036C58.4082 107.456 64.7442 111.372 65.9922 110.119C66.4262 109.683 66.7812 101.153 66.7812 91.163L52.1107 100.676ZM44.4102 78.1148C44.4102 78.1148 44.4104 78.1147 44.4101 78.1149C44.41 78.115 44.4101 78.115 44.4102 78.1148Z" stroke="white"/>
</svg>
