<svg width="96" height="100" viewBox="0 0 96 100" fill="none" xmlns="http://www.w3.org/2000/svg">
<path d="M54.0197 13.1434L53.9193 13.1431V13.2434V16.38C53.9193 17.2383 53.8525 18.0159 53.7459 18.5766C53.6924 18.8578 53.6298 19.0794 53.5631 19.2283C53.5296 19.3031 53.4975 19.354 53.4691 19.3848C53.4405 19.4157 53.4251 19.4167 53.4227 19.4167C53.3608 19.4167 53.2827 19.4407 53.2004 19.4736C53.1143 19.5081 53.0104 19.558 52.8919 19.6208C52.6549 19.7465 52.3533 19.9274 52.0085 20.1492C51.3186 20.5931 50.4505 21.2046 49.5702 21.8768C48.6927 22.5468 47.8515 23.1556 47.2034 23.5965C46.8792 23.8171 46.6044 23.9949 46.3981 24.1173C46.2947 24.1786 46.2101 24.225 46.1458 24.2558C46.1172 24.2695 46.0939 24.2795 46.0756 24.2863C46.0714 24.2769 46.0668 24.2649 46.0616 24.2498C46.039 24.1831 46.0156 24.0796 45.9925 23.9396C45.9466 23.661 45.9048 23.2551 45.8695 22.7508C45.7989 21.7431 45.755 20.3515 45.755 18.8196V13.2434V13.1433L45.6549 13.1434L39.9044 13.1539C37.5919 13.1579 35.8424 13.1652 34.499 13.3757C33.1515 13.5869 32.1976 14.0044 31.4864 14.8391C30.7794 15.6689 30.3231 16.8989 29.9393 18.7087C29.5551 20.52 29.2406 22.9283 28.8273 26.1256C28.3825 29.5659 28.0401 32.1144 27.7753 33.6947C27.6426 34.4868 27.5304 35.0289 27.4362 35.3182C27.4175 35.3755 27.4003 35.4206 27.3846 35.4546C27.3837 35.4519 27.3828 35.4491 27.3819 35.4462C27.319 35.244 27.2651 34.7794 27.221 34.0268C27.1772 33.2793 27.1435 32.2599 27.1169 30.958C27.0638 28.3543 27.0391 24.625 27.0184 19.6905C26.9842 11.566 27.0053 6.64589 27.1333 3.75702C27.1973 2.31135 27.2879 1.38061 27.41 0.812907C27.4712 0.528092 27.5386 0.343905 27.6085 0.233045C27.6764 0.125467 27.7372 0.1 27.7903 0.1C27.9108 0.1 28.0312 0.154254 28.1518 0.278938C28.2737 0.404937 28.3911 0.598617 28.4999 0.863766C28.7174 1.39378 28.8909 2.18521 29.0076 3.2196C29.0259 3.38122 29.043 3.53842 29.0597 3.69124C29.1156 4.20387 29.1661 4.66723 29.2339 5.0831C29.322 5.6237 29.4404 6.09292 29.6427 6.49717C30.0522 7.31559 30.7925 7.84322 32.2345 8.19285C33.6723 8.54145 35.8267 8.7179 39.0908 8.8222C41.9806 8.91455 45.7471 8.95043 50.6669 8.9973C51.3075 9.0034 51.9677 9.00969 52.648 9.01632L73.436 9.21888V14.3183C73.436 16.3072 73.3788 17.5978 73.2309 18.39C73.1569 18.787 73.062 19.0467 72.949 19.2055C72.8408 19.3576 72.7169 19.4167 72.5657 19.4167C72.3472 19.4167 72.0789 19.2425 71.8246 18.9164C71.5748 18.5959 71.3562 18.1502 71.2324 17.6577C71.0075 16.7616 70.7143 16.0288 70.2789 15.4357C69.8423 14.8411 69.2665 14.3921 68.4853 14.0579C66.9306 13.3928 64.5538 13.1793 60.8156 13.1664L54.0197 13.1434ZM46.0906 24.3137C46.0907 24.3138 46.0903 24.3134 46.0894 24.3122C46.0902 24.313 46.0906 24.3136 46.0906 24.3137ZM28.4609 58.1027L28.4901 58.0507L28.4583 58.0003L26.5512 54.9787L26.4667 55.0321L26.5512 54.9787C23.9251 50.8193 20.9559 45.6013 18.7401 41.2532C18.2255 40.243 17.6666 39.3235 17.1798 38.6552C16.9366 38.3214 16.7096 38.0477 16.5135 37.8564C16.4156 37.7608 16.3231 37.6836 16.2382 37.6296C16.1555 37.577 16.069 37.5393 15.9855 37.5393C15.9028 37.5393 15.8415 37.5915 15.7994 37.6492C15.7565 37.7078 15.72 37.7891 15.6874 37.8875C15.6216 38.0857 15.5629 38.3807 15.5096 38.7759C15.4027 39.568 15.3148 40.7839 15.2429 42.4833C15.0989 45.8832 15.0184 51.2301 14.9801 59.0193C14.9515 64.8983 14.8869 70.2814 14.8058 74.2181C14.7652 76.1866 14.7206 77.7929 14.6743 78.9187C14.6511 79.4817 14.6276 79.9236 14.604 80.2301C14.5922 80.3837 14.5805 80.5017 14.5691 80.5834C14.5649 80.6134 14.5609 80.6373 14.5572 80.6557C14.5362 80.6225 14.5106 80.5618 14.4859 80.4664C14.4261 80.2351 14.3869 79.8621 14.3862 79.4027C14.3856 79.1594 14.2949 78.5847 14.1367 77.7673C13.9775 76.9451 13.7477 75.8666 13.4645 74.608C12.898 72.0906 12.1172 68.8506 11.259 65.4954L11.1636 65.5198L11.259 65.4954L8.14085 53.3097L8.12832 39.3078L8.11577 25.2928L8.11571 25.2286L8.05729 25.2019L4.04941 23.3729L4.0494 23.3729L0.458305 21.7335L5.92485 21.7251L11.7914 21.7169L13.0542 23.9268C13.0542 23.9268 13.0542 23.9268 13.0542 23.9268C13.7641 25.1697 15.2951 27.912 16.4563 30.0202L16.4563 30.0203C17.0375 31.0751 17.6234 32.1125 18.0992 32.9344C18.5734 33.7533 18.9419 34.3645 19.0868 34.5618C19.363 34.9387 20.3681 36.6572 21.3201 38.3845L21.3999 38.3406L21.3201 38.3846C23.016 41.4605 25.2844 45.4689 27.1471 48.7083C28.0784 50.328 28.9084 51.7558 29.5149 52.7788C29.818 53.2902 30.0656 53.701 30.2421 53.9841C30.3303 54.1255 30.4013 54.2361 30.453 54.3117C30.4786 54.3493 30.5006 54.3799 30.5181 54.4018C30.5267 54.4124 30.536 54.4234 30.5456 54.4326C30.5502 54.4371 30.5572 54.4435 30.5662 54.4494C30.5717 54.453 30.594 54.4678 30.6258 54.4678C30.6478 54.4678 30.6648 54.4611 30.6739 54.4568C30.6797 54.4541 30.685 54.4511 30.6896 54.4482C30.6927 54.4461 30.6955 54.4442 30.698 54.4424C30.7098 54.4337 30.7209 54.4233 30.7305 54.4135C30.7501 54.3935 30.7733 54.3661 30.7992 54.3332C30.8515 54.267 30.9215 54.1701 31.0077 54.0456C31.1805 53.7959 31.4221 53.4293 31.7237 52.96C32.3272 52.0213 33.173 50.6685 34.1935 49.0118C36.2345 45.6982 38.9751 41.1671 41.8746 36.2964C45.065 30.9372 47.4914 27.4189 49.9257 24.9521C52.3568 22.4885 54.7983 21.0711 58.0246 19.9203C59.4345 19.4173 61.7412 19.081 63.6995 18.9797C64.678 18.9291 65.5639 18.9375 66.2028 19.0116C66.5233 19.0488 66.7752 19.1019 66.9442 19.1691C67.0289 19.2028 67.0864 19.2375 67.1213 19.2704C67.1547 19.302 67.1628 19.3268 67.1628 19.3466C67.1628 19.3553 67.1581 19.3785 67.1322 19.4192C67.1073 19.4583 67.0682 19.5052 67.0136 19.5591C66.9048 19.6668 66.744 19.7931 66.5413 19.9298C66.1365 20.2026 65.5756 20.5092 64.9571 20.7823C63.8615 21.266 62.546 22.217 61.1049 23.5179C59.6625 24.82 58.0891 26.4774 56.4777 28.3795C53.2549 32.1837 49.8764 36.9714 47.0863 41.8639C45.6883 44.3152 44.4433 46.5069 43.3301 48.4663C41.5379 51.6212 40.0877 54.174 38.8922 56.2387C36.9536 59.5869 35.6885 61.6453 34.7241 62.9036C33.7602 64.1612 33.1093 64.6026 32.4036 64.744C32.0462 64.8157 31.6685 64.8117 31.2166 64.7885C31.1119 64.7831 31.0034 64.7767 30.8904 64.77C30.5182 64.748 30.0984 64.7232 29.6144 64.7232C28.4428 64.7232 27.5594 64.7043 26.9244 64.6169C26.282 64.5286 25.9295 64.374 25.7747 64.1361C25.622 63.9014 25.6368 63.5451 25.8497 62.9763C26.0603 62.4135 26.4512 61.6773 26.9944 60.7109L28.4609 58.1027ZM64.965 80.6023L65.0274 80.6804L64.9649 80.6024C64.189 81.2231 63.3823 81.7869 62.7085 82.1949C62.3715 82.399 62.0693 82.5632 61.8219 82.6761C61.5693 82.7913 61.3885 82.8458 61.2879 82.8458C61.2439 82.8458 61.1898 82.8237 61.1267 82.7282C61.0623 82.6306 60.9991 82.4703 60.9403 82.2281C60.823 81.7452 60.7308 80.9706 60.6597 79.8108C60.5178 77.4934 60.4619 73.6628 60.449 67.611C60.4382 62.5507 60.4912 58.719 60.6062 56.1529C60.6638 54.8694 60.7368 53.9052 60.8247 53.263C60.8687 52.9411 60.9159 52.7048 60.9651 52.551C60.9899 52.4734 61.0133 52.4231 61.033 52.3943C61.039 52.3856 61.0435 52.3804 61.0464 52.3774C61.0646 52.3799 61.0878 52.39 61.1165 52.4181C61.1515 52.4523 61.1894 52.5083 61.2276 52.5907C61.3037 52.7552 61.3707 53.0024 61.4237 53.3232C61.5293 53.9627 61.5754 54.8705 61.5413 55.9329C61.4411 59.0583 61.6542 63.0952 62.0223 66.5577C62.2063 68.2891 62.4292 69.8786 62.6715 71.14C62.7926 71.7706 62.9188 72.3204 63.0477 72.7657C63.1761 73.2087 63.3092 73.5557 63.4469 73.7752C63.6603 74.1156 63.8461 74.3834 64.0263 74.5806C64.2071 74.7785 64.3875 74.9112 64.5915 74.9733C64.7962 75.0356 65.0125 75.0231 65.2577 74.9534C65.5014 74.8842 65.78 74.7566 66.1131 74.5823C66.4932 74.3832 67.4778 73.6917 68.7751 72.7355C70.0762 71.7766 71.7 70.545 73.3641 69.2593C76.6909 66.6888 80.1831 63.898 81.5771 62.6354L81.5099 62.5613L81.5771 62.6354C82.3159 61.9658 83.9657 60.7128 85.2426 59.852C86.4583 59.0323 87.1433 58.1317 87.2886 57.1729C87.4342 56.2125 87.0341 55.2235 86.147 54.2382C84.3763 52.2715 80.6206 50.2674 75.1002 48.4367C69.8257 46.6872 66.2535 45.0675 63.8978 43.2066C61.5482 41.3504 60.4073 39.2529 59.9997 36.5343C59.5499 33.5354 59.7901 31.0757 60.7569 29.0485C61.7233 27.0222 63.4215 25.416 65.9103 24.1341L65.8708 24.0573L65.9103 24.1341C68.6211 22.7372 71.0285 21.9728 73.5603 21.8079C76.0928 21.6429 78.7571 22.0772 81.9826 23.0881C84.7557 23.9573 86.4284 24.3989 87.5252 24.4002C88.0783 24.4009 88.4943 24.29 88.8332 24.0592C89.1703 23.8295 89.4206 23.4882 89.6557 23.049C89.858 22.6709 90.0404 22.3726 90.2043 22.1571C90.3707 21.9381 90.5081 21.8181 90.6167 21.7764C90.6677 21.7568 90.709 21.7559 90.7448 21.7667C90.7817 21.7778 90.823 21.8046 90.8675 21.8581C90.9591 21.9681 91.0473 22.1707 91.1264 22.4868C91.2834 23.115 91.392 24.1383 91.4608 25.6074C91.5296 27.0744 91.5586 28.9791 91.5586 31.3661C91.5586 34.0482 91.4931 36.4857 91.3876 38.2519C91.3349 39.1354 91.2723 39.8489 91.2032 40.3405C91.1685 40.5869 91.1328 40.7738 91.0969 40.8974C91.0814 40.951 91.067 40.9884 91.0548 41.0124C91.0436 41.0046 91.0278 40.9917 91.0074 40.9704C90.9613 40.9224 90.9064 40.8475 90.8439 40.7448C90.7195 40.5403 90.5741 40.2407 90.4175 39.8663C90.1047 39.1187 89.7519 38.0849 89.4352 36.9461C88.203 32.5129 85.2068 28.4324 81.9176 26.7319C80.5301 26.0142 78.4511 25.5675 76.4034 25.4328C74.3569 25.2982 72.3207 25.4737 71.0209 26.0168C69.8541 26.5043 68.5449 27.5461 67.5288 28.657C67.02 29.2133 66.5818 29.7899 66.2702 30.3275C65.9603 30.8621 65.7687 31.3695 65.7687 31.7843C65.7687 32.3716 66.0524 33.0324 66.54 33.7151C67.029 34.3999 67.7306 35.117 68.5842 35.8194C70.2915 37.2242 72.6172 38.578 75.0973 39.5C82.1671 42.1283 86.3929 43.8384 89.1082 45.3865C91.8162 46.9304 93.0157 48.3097 94.0344 50.2797C94.5876 51.3504 95.0437 53.2987 95.0437 54.5992C95.0437 55.5642 94.9232 56.2331 94.549 56.8587C94.1722 57.4886 93.5325 58.0845 92.4695 58.8891C88.9187 61.5768 88.8816 61.606 85.3428 64.4652C83.6293 65.8497 78.9806 69.5373 75.0132 72.66C71.045 75.7819 66.5238 79.3565 64.965 80.6023ZM36.421 72.8794L36.421 72.8794C36.1883 71.9544 35.7944 70.618 35.5435 69.9082C35.5201 69.8415 35.5106 69.7962 35.5085 69.7681C35.5251 69.773 35.5468 69.7817 35.5741 69.7956C35.6314 69.8248 35.7049 69.8725 35.7938 69.94C36.1506 70.2108 36.7112 70.7633 37.3892 71.5359C38.7477 73.0844 40.5353 74.5433 42.0938 75.5064C42.8727 75.9877 43.5987 76.348 44.1885 76.5327C44.4831 76.625 44.7489 76.6751 44.9728 76.672C45.1963 76.6688 45.3903 76.6122 45.5245 76.4776L45.4567 76.4101L45.5245 76.4775C45.5461 76.4558 45.5614 76.4285 45.5727 76.4038C45.5847 76.3777 45.5955 76.3472 45.6055 76.3136C45.6255 76.2463 45.6444 76.1591 45.6626 76.0548C45.699 75.8456 45.7338 75.5582 45.7667 75.2027C45.8327 74.4913 45.8921 73.5001 45.9419 72.302C46.0417 69.9055 46.1035 66.6769 46.1035 63.1942V50.562L49.4 45.0954C50.311 43.5846 51.1395 42.1424 51.7405 41.0354C52.0409 40.482 52.285 40.0115 52.4542 39.6577C52.5387 39.481 52.6052 39.332 52.6508 39.2158C52.6735 39.1577 52.6916 39.1064 52.7042 39.0632C52.7161 39.022 52.7253 38.9804 52.7253 38.9448C52.7253 38.6828 52.9246 38.4658 53.1775 38.4391C53.183 38.4576 53.1891 38.4824 53.1957 38.5146C53.2161 38.6144 53.2374 38.7662 53.2593 38.9694C53.3028 39.3749 53.3474 39.9744 53.3921 40.7483C53.4817 42.2956 53.5719 44.534 53.6576 47.2974C53.8291 52.8237 53.9824 60.4467 54.0762 68.8322C54.1699 77.2181 54.2149 84.9125 54.2118 90.5536C54.2103 93.3743 54.1968 95.6812 54.1713 97.3045C54.1586 98.1162 54.143 98.7563 54.1244 99.204C54.115 99.428 54.105 99.6027 54.0944 99.7263C54.0891 99.7882 54.0837 99.8358 54.0785 99.8698C54.0777 99.8748 54.0769 99.8794 54.0762 99.8836C54.0529 99.8649 54.0195 99.8306 53.9765 99.7739C53.8604 99.6208 53.71 99.3537 53.5355 98.9889C53.188 98.262 52.7559 97.1697 52.3241 95.8876C51.6567 93.9057 50.0931 90.9758 48.4957 88.4539C47.6965 87.1921 46.887 86.0297 46.1745 85.1365C45.8183 84.69 45.4853 84.3094 45.189 84.0169C44.8948 83.7266 44.6296 83.5156 44.4089 83.4176C44.3601 83.3959 44.2901 83.3502 44.1989 83.2774C44.1091 83.2057 44.0036 83.1116 43.8844 82.9974C43.646 82.7692 43.3569 82.4644 43.0359 82.1067C42.394 81.3916 41.6282 80.4694 40.8922 79.535C40.1563 78.6005 39.4512 77.6553 38.9306 76.8945C38.6702 76.5139 38.4569 76.181 38.3092 75.9193C38.2352 75.7883 38.1787 75.677 38.1409 75.5875C38.1016 75.4944 38.0878 75.4366 38.0878 75.4082C38.0878 75.1612 38.012 74.933 37.8852 74.7643C37.7585 74.5957 37.5758 74.4815 37.366 74.4815C37.3165 74.4815 37.2463 74.4529 37.1582 74.3745C37.0721 74.2978 36.9801 74.1831 36.8887 74.0359C36.7061 73.7421 36.5346 73.3326 36.421 72.8794Z" fill="white" stroke="#575757" stroke-width="0.2"/>
</svg>
